<svg xmlns="http://www.w3.org/2000/svg" viewBox="0 0 350 150">
  <path fill="#a50034" d="M75,0C33.6,0,0,33.6,0,75s33.6,75,75,75s75-33.6,75-75S116.4,0,75,0z"/>
  <path fill="#FFFFFF" d="M43.2,62.5c5.4,0,9.8,4.4,9.8,9.8s-4.4,9.8-9.8,9.8c-5.4,0-9.8-4.4-9.8-9.8S37.8,62.5,43.2,62.5z M73.4,35.6v54.8h27.1v11.4H62V35.6H73.4z M75,118.1c-23.8,0-43.1-19.3-43.1-43.1c0-23.8,19.3-43.1,43.1-43.1c15.1,0,28.3,7.8,36.1,19.6l-9.5,6.3c-5.9-8.9-15.9-14.7-27.1-14.7c-18.1,0-32.8,14.7-32.8,32.8s14.7,32.8,32.8,32.8c11.6,0,21.8-6.2,27.5-15.4V75h-17.6V63.8h28.7V100C106.7,110.7,92,118.1,75,118.1z"/>
  <path fill="#6b6b6b" d="M185.3,33.5v72h42.1v15.2h-58.4v-87.2H185.3z M294.9,114.5c-4.4,4.2-11.4,6.6-21.2,6.6c-18.6,0-31-11.3-31-28.1V64.8c0-16.8,12.5-28.1,31-28.1c16.2,0,26.9,8.5,28.7,22.7h-16c-1.3-6.2-6.5-9.3-12.7-9.3c-8.9,0-14.6,5.7-14.6,15v27.9c0,9.2,5.7,14.7,14.6,14.7c6.1,0,10-2,12.3-5.3v-11.7h-14.6V77.4h30.8V114.5z"/>
</svg>
